<mxfile host="65bd71144e">
    <diagram id="8fEVrYAfU3DoZ61QEVGA" name="车规芯片01">
        <mxGraphModel dx="1851" dy="1160" grid="1" gridSize="10" guides="1" tooltips="1" connect="1" arrows="1" fold="1" page="1" pageScale="1" pageWidth="850" pageHeight="1100" background="#ffffff" math="0" shadow="0">
            <root>
                <mxCell id="0"/>
                <mxCell id="1" parent="0"/>
                <mxCell id="4" value="ADDA" style="ellipse;whiteSpace=wrap;html=1;aspect=fixed;fontSize=14;" vertex="1" parent="1">
                    <mxGeometry x="429" y="279" width="80" height="80" as="geometry"/>
                </mxCell>
                <mxCell id="5" value="功率芯片" style="ellipse;whiteSpace=wrap;html=1;aspect=fixed;fontSize=14;" vertex="1" parent="1">
                    <mxGeometry x="485" y="180" width="80" height="80" as="geometry"/>
                </mxCell>
                <mxCell id="6" value="电源管理" style="ellipse;whiteSpace=wrap;html=1;aspect=fixed;fontSize=14;" vertex="1" parent="1">
                    <mxGeometry x="415" y="82" width="80" height="80" as="geometry"/>
                </mxCell>
                <mxCell id="7" value="存储器" style="ellipse;whiteSpace=wrap;html=1;aspect=fixed;fontSize=14;" vertex="1" parent="1">
                    <mxGeometry x="120.5" y="279" width="80" height="80" as="geometry"/>
                </mxCell>
                <mxCell id="8" value="传感型" style="ellipse;whiteSpace=wrap;html=1;aspect=fixed;fontSize=14;" vertex="1" parent="1">
                    <mxGeometry x="65" y="180" width="80" height="80" as="geometry"/>
                </mxCell>
                <mxCell id="9" value="计算型" style="ellipse;whiteSpace=wrap;html=1;aspect=fixed;fontSize=14;" vertex="1" parent="1">
                    <mxGeometry x="125" y="82" width="80" height="80" as="geometry"/>
                </mxCell>
                <mxCell id="11" value="汽车芯片分类" style="rounded=1;whiteSpace=wrap;html=1;fontSize=22;fillColor=#1ba1e2;fontColor=#990000;strokeColor=#006EAF;fontStyle=1" vertex="1" parent="1">
                    <mxGeometry x="225" y="190" width="160" height="60" as="geometry"/>
                </mxCell>
                <mxCell id="13" value="" style="shape=flexArrow;endArrow=classic;html=1;fontSize=22;fontColor=#990000;strokeColor=#2B45F0;fillColor=#2B45F0;entryX=1;entryY=0;entryDx=0;entryDy=0;exitX=0;exitY=1;exitDx=0;exitDy=0;" edge="1" parent="1" source="11" target="7">
                    <mxGeometry width="50" height="50" relative="1" as="geometry">
                        <mxPoint x="265" y="470" as="sourcePoint"/>
                        <mxPoint x="315" y="420" as="targetPoint"/>
                    </mxGeometry>
                </mxCell>
                <mxCell id="14" value="" style="shape=flexArrow;endArrow=classic;html=1;fontSize=22;fontColor=#990000;strokeColor=#2B45F0;fillColor=#2B45F0;exitX=1;exitY=1;exitDx=0;exitDy=0;" edge="1" parent="1" source="11" target="4">
                    <mxGeometry width="50" height="50" relative="1" as="geometry">
                        <mxPoint x="275" y="480" as="sourcePoint"/>
                        <mxPoint x="325" y="430" as="targetPoint"/>
                    </mxGeometry>
                </mxCell>
                <mxCell id="15" value="" style="shape=flexArrow;endArrow=classic;html=1;fontSize=22;fontColor=#990000;strokeColor=#2B45F0;fillColor=#2B45F0;exitX=0.087;exitY=0.007;exitDx=0;exitDy=0;entryX=1;entryY=1;entryDx=0;entryDy=0;exitPerimeter=0;" edge="1" parent="1" source="11" target="9">
                    <mxGeometry width="50" height="50" relative="1" as="geometry">
                        <mxPoint x="245" y="160" as="sourcePoint"/>
                        <mxPoint x="295" y="110" as="targetPoint"/>
                    </mxGeometry>
                </mxCell>
                <mxCell id="16" value="" style="shape=flexArrow;endArrow=classic;html=1;fontSize=22;fontColor=#990000;strokeColor=#2B45F0;fillColor=#2B45F0;entryX=0;entryY=0.5;entryDx=0;entryDy=0;exitX=1;exitY=0.5;exitDx=0;exitDy=0;" edge="1" parent="1" source="11" target="5">
                    <mxGeometry width="50" height="50" relative="1" as="geometry">
                        <mxPoint x="285" y="490" as="sourcePoint"/>
                        <mxPoint x="335" y="440" as="targetPoint"/>
                    </mxGeometry>
                </mxCell>
                <mxCell id="17" value="" style="shape=flexArrow;endArrow=classic;html=1;fontSize=22;fontColor=#990000;strokeColor=#2B45F0;fillColor=#2B45F0;entryX=0;entryY=1;entryDx=0;entryDy=0;exitX=1;exitY=0;exitDx=0;exitDy=0;" edge="1" parent="1" source="11" target="6">
                    <mxGeometry width="50" height="50" relative="1" as="geometry">
                        <mxPoint x="295" y="500" as="sourcePoint"/>
                        <mxPoint x="345" y="450" as="targetPoint"/>
                    </mxGeometry>
                </mxCell>
                <mxCell id="18" value="" style="shape=flexArrow;endArrow=classic;html=1;fontSize=22;fontColor=#990000;strokeColor=#2B45F0;fillColor=#2B45F0;entryX=1;entryY=0.5;entryDx=0;entryDy=0;exitX=0;exitY=0.5;exitDx=0;exitDy=0;" edge="1" parent="1" source="11" target="8">
                    <mxGeometry width="50" height="50" relative="1" as="geometry">
                        <mxPoint x="305" y="510" as="sourcePoint"/>
                        <mxPoint x="485" y="470" as="targetPoint"/>
                    </mxGeometry>
                </mxCell>
                <mxCell id="20" style="edgeStyle=none;html=1;exitX=0.1;exitY=0.5;exitDx=0;exitDy=0;exitPerimeter=0;entryX=0;entryY=0.5;entryDx=0;entryDy=0;fontSize=22;fontColor=#990000;strokeColor=#2B45F0;fillColor=#2B45F0;" edge="1" parent="1" source="19" target="9">
                    <mxGeometry relative="1" as="geometry"/>
                </mxCell>
                <mxCell id="19" value="" style="shape=curlyBracket;whiteSpace=wrap;html=1;rounded=1;flipH=1;fontSize=22;fontColor=#990000;strokeColor=#000000;" vertex="1" parent="1">
                    <mxGeometry x="95" y="70" width="30" height="80" as="geometry"/>
                </mxCell>
                <mxCell id="21" value="MCU" style="text;html=1;align=center;verticalAlign=middle;resizable=0;points=[];autosize=1;strokeColor=none;fillColor=none;fontSize=22;fontColor=#990000;" vertex="1" parent="1">
                    <mxGeometry x="30" y="60" width="70" height="30" as="geometry"/>
                </mxCell>
                <mxCell id="22" value="SOC" style="text;html=1;align=center;verticalAlign=middle;resizable=0;points=[];autosize=1;strokeColor=none;fillColor=none;fontSize=22;fontColor=#990000;" vertex="1" parent="1">
                    <mxGeometry x="35" y="135" width="60" height="30" as="geometry"/>
                </mxCell>
                <mxCell id="23" value="车载计算芯片--SOC" style="text;html=1;strokeColor=none;fillColor=none;align=left;verticalAlign=middle;whiteSpace=wrap;rounded=0;fontSize=22;fontColor=#990000;fontStyle=1" vertex="1" parent="1">
                    <mxGeometry x="30" y="377" width="235" height="30" as="geometry"/>
                </mxCell>
                <mxCell id="24" value="&lt;b&gt;&lt;font style=&quot;font-size: 23px&quot;&gt;汽车芯片分类&lt;/font&gt;&lt;/b&gt;" style="text;html=1;strokeColor=none;fillColor=none;align=left;verticalAlign=middle;whiteSpace=wrap;rounded=0;fontSize=22;fontColor=#990000;" vertex="1" parent="1">
                    <mxGeometry x="35" y="20" width="175" height="30" as="geometry"/>
                </mxCell>
                <mxCell id="25" value="Mobileeye--EyeQ4功能介绍" style="text;html=1;strokeColor=none;fillColor=none;align=left;verticalAlign=middle;whiteSpace=wrap;rounded=0;fontSize=22;fontColor=#990000;fontStyle=1" vertex="1" parent="1">
                    <mxGeometry x="28" y="417" width="310" height="30" as="geometry"/>
                </mxCell>
                <mxCell id="26" value="    1.车道线检测" style="swimlane;fontSize=18;fontColor=#990000;strokeColor=#000000;fillColor=none;startSize=30;align=left;" vertex="1" parent="1">
                    <mxGeometry x="33" y="468" width="305" height="300" as="geometry"/>
                </mxCell>
                <mxCell id="27" value="* 4条车道线(含路沿）&lt;br&gt;* 车道线类型（含双车道）&lt;br&gt;* 车道线颜色&lt;br&gt;* 车道线ID&lt;br&gt;* 车道线可信度&lt;br&gt;* 车道线宽度&lt;br&gt;* 绘制车道线模型的几何参数&lt;br&gt;* 视野范围内车道线纵向长度&lt;br&gt;* Crossing&lt;br&gt;* 虚线平均线长度及间隙长度&lt;br&gt;* 车道宽度" style="text;html=1;align=left;verticalAlign=middle;resizable=0;points=[];autosize=1;strokeColor=none;fillColor=none;fontSize=18;fontColor=#000000;" vertex="1" parent="26">
                    <mxGeometry x="25" y="30" width="240" height="250" as="geometry"/>
                </mxCell>
                <mxCell id="28" value="    2.目标（行人、车辆）" style="swimlane;fontSize=18;fontColor=#990000;strokeColor=#000000;fillColor=none;startSize=30;align=left;" vertex="1" parent="1">
                    <mxGeometry x="368" y="468" width="395" height="420" as="geometry"/>
                </mxCell>
                <mxCell id="29" value="* 10个目标信息（行人、车辆）&lt;br&gt;* 目标ID&lt;br&gt;* 目标类型(pedestrian,bike,bicycle,car,truck)&lt;br&gt;* 目标运动分类&lt;br&gt;* 目标运动状态(移动，静止)&lt;br&gt;* 目标横向&lt;br&gt;* 纵向速度&lt;br&gt;* 目标相对的横向，纵向距离&lt;br&gt;* 目标的长度，宽度&lt;br&gt;* 目标角速度&lt;br&gt;* 目标的测量状态&lt;br&gt;* 目标的生命周期&lt;br&gt;* 目标的存在概率&lt;br&gt;* 目标的转向灯&lt;br&gt;*刹车灯状态&lt;br&gt;* 目标所在的街道&lt;br&gt;* 目标的纵向加速度&lt;br&gt;" style="text;html=1;align=left;verticalAlign=middle;resizable=0;points=[];autosize=1;strokeColor=none;fillColor=none;fontSize=18;fontColor=#000000;" vertex="1" parent="28">
                    <mxGeometry x="15" y="30" width="370" height="380" as="geometry"/>
                </mxCell>
                <mxCell id="32" value="    3.刹车状态信号" style="swimlane;fontSize=18;fontColor=#990000;strokeColor=#000000;fillColor=none;startSize=30;align=left;" vertex="1" parent="1">
                    <mxGeometry x="33" y="808" width="305" height="270" as="geometry"/>
                </mxCell>
                <mxCell id="33" value="* 踩下、没踩下&lt;br&gt;* 前进、倒挡&lt;br&gt;* 方向盘转向角度&lt;br&gt;* INACTIVE&lt;br&gt;* 左转、右转&lt;br&gt;* 双闪&lt;br&gt;* 实际车速&lt;br&gt;* 车辆横摆角度&lt;br&gt;* 关，低速，中速，高速，单次。" style="text;html=1;align=left;verticalAlign=middle;resizable=0;points=[];autosize=1;strokeColor=none;fillColor=none;fontSize=18;fontColor=#000000;" vertex="1" parent="32">
                    <mxGeometry x="25" y="45" width="280" height="200" as="geometry"/>
                </mxCell>
                <mxCell id="34" value="    4.交通标识(TSR)" style="swimlane;fontSize=18;fontColor=#990000;strokeColor=#000000;fillColor=none;startSize=30;align=left;" vertex="1" parent="1">
                    <mxGeometry x="368" y="908" width="390" height="170" as="geometry"/>
                </mxCell>
                <mxCell id="35" value="* 红绿灯&lt;br&gt;* 标识牌信号类型(限速牌等）&lt;br&gt;* 可靠性&lt;br&gt;* 两个补充标识及可靠性(雨天，下雪等)&lt;br&gt;* 标识牌相对位置(x,y,z)" style="text;html=1;align=left;verticalAlign=middle;resizable=0;points=[];autosize=1;strokeColor=none;fillColor=none;fontSize=18;fontColor=#000000;" vertex="1" parent="34">
                    <mxGeometry x="15" y="40" width="330" height="120" as="geometry"/>
                </mxCell>
                <mxCell id="36" value="地平线开发工具链--开工天物" style="text;html=1;strokeColor=none;fillColor=none;align=left;verticalAlign=middle;whiteSpace=wrap;rounded=0;fontSize=22;fontColor=#990000;fontStyle=1" vertex="1" parent="1">
                    <mxGeometry x="902" y="24" width="305" height="30" as="geometry"/>
                </mxCell>
                <mxCell id="42" value="01.系统软件" style="html=1;shadow=0;dashed=0;align=center;verticalAlign=middle;shape=mxgraph.arrows2.bendArrow;dy=15;dx=38;notch=18.91;arrowHead=63.54;rounded=1;fontSize=18;fontColor=#000000;strokeColor=#000000;fillColor=#66B2FF;rotation=0;" vertex="1" parent="1">
                    <mxGeometry x="1118" y="80" width="180" height="70" as="geometry"/>
                </mxCell>
                <mxCell id="45" value="02.算法包" style="html=1;shadow=0;dashed=0;align=center;verticalAlign=middle;shape=mxgraph.arrows2.bendArrow;dy=15;dx=38;notch=18.91;arrowHead=63.54;rounded=1;fontSize=18;fontColor=#000000;strokeColor=#000000;fillColor=#999999;rotation=90;" vertex="1" parent="1">
                    <mxGeometry x="1229" y="151" width="180" height="70" as="geometry"/>
                </mxCell>
                <mxCell id="46" value="04.嵌入式应用" style="html=1;shadow=0;dashed=0;align=center;verticalAlign=middle;shape=mxgraph.arrows2.bendArrow;dy=15;dx=38;notch=18.91;arrowHead=63.54;rounded=1;fontSize=18;fontColor=#000000;strokeColor=#000000;fillColor=#999999;rotation=-90;" vertex="1" parent="1">
                    <mxGeometry x="1046" y="190" width="180" height="70" as="geometry"/>
                </mxCell>
                <mxCell id="47" value="03.编译器" style="html=1;shadow=0;dashed=0;align=center;verticalAlign=middle;shape=mxgraph.arrows2.bendArrow;dy=15;dx=38;notch=18.91;arrowHead=63.54;rounded=1;fontSize=18;fontColor=#000000;strokeColor=#000000;fillColor=#66B2FF;rotation=-180;" vertex="1" parent="1">
                    <mxGeometry x="1157" y="262" width="180" height="70" as="geometry"/>
                </mxCell>
                <mxCell id="52" value="" style="edgeStyle=none;html=1;fontSize=18;fontColor=#000000;strokeColor=#2B45F0;fillColor=#2B45F0;entryX=0;entryY=0;entryDx=8.79;entryDy=25.56;entryPerimeter=0;" edge="1" parent="1" source="48" target="42">
                    <mxGeometry relative="1" as="geometry"/>
                </mxCell>
                <mxCell id="48" value="针对开发人员的环境配置" style="text;html=1;strokeColor=none;fillColor=none;align=left;verticalAlign=middle;whiteSpace=wrap;rounded=0;fontSize=18;fontColor=#000000;" vertex="1" parent="1">
                    <mxGeometry x="927.5" y="121" width="144" height="30" as="geometry"/>
                </mxCell>
                <mxCell id="54" style="edgeStyle=none;html=1;exitX=0;exitY=0.25;exitDx=0;exitDy=0;fontSize=18;fontColor=#000000;strokeColor=#2B45F0;fillColor=#2B45F0;" edge="1" parent="1" source="49">
                    <mxGeometry relative="1" as="geometry">
                        <mxPoint x="1331" y="110" as="targetPoint"/>
                    </mxGeometry>
                </mxCell>
                <mxCell id="49" value="利用AI加速器的算法模型；&lt;br&gt;发挥芯片算理特点的算法开发工具包。" style="text;html=1;strokeColor=none;fillColor=none;align=left;verticalAlign=middle;whiteSpace=wrap;rounded=0;fontSize=18;fontColor=#000000;" vertex="1" parent="1">
                    <mxGeometry x="1381" y="130" width="230" height="30" as="geometry"/>
                </mxCell>
                <mxCell id="56" value="" style="edgeStyle=none;html=1;fontSize=18;fontColor=#000000;strokeColor=#2B45F0;fillColor=#2B45F0;exitX=0;exitY=0.25;exitDx=0;exitDy=0;" edge="1" parent="1" source="50" target="47">
                    <mxGeometry relative="1" as="geometry"/>
                </mxCell>
                <mxCell id="50" value="把算法模型移植到芯片的桥梁" style="text;html=1;strokeColor=none;fillColor=none;align=left;verticalAlign=middle;whiteSpace=wrap;rounded=0;fontSize=18;fontColor=#000000;" vertex="1" parent="1">
                    <mxGeometry x="1396" y="257" width="150" height="30" as="geometry"/>
                </mxCell>
                <mxCell id="53" value="" style="edgeStyle=none;html=1;fontSize=18;fontColor=#000000;strokeColor=#2B45F0;fillColor=#2B45F0;entryX=0;entryY=0;entryDx=86;entryDy=16.77;entryPerimeter=0;exitX=0.5;exitY=0;exitDx=0;exitDy=0;" edge="1" parent="1" source="51" target="46">
                    <mxGeometry relative="1" as="geometry"/>
                </mxCell>
                <mxCell id="51" value="端到端的可用示例；&lt;br&gt;端到端的部署指导。" style="text;html=1;strokeColor=none;fillColor=none;align=left;verticalAlign=middle;whiteSpace=wrap;rounded=0;fontSize=18;fontColor=#000000;" vertex="1" parent="1">
                    <mxGeometry x="932" y="257" width="170" height="30" as="geometry"/>
                </mxCell>
                <mxCell id="57" value="&lt;span style=&quot;&quot;&gt;&lt;font style=&quot;font-size: 18px&quot;&gt;特色：开放&amp;amp;贴身支持&lt;/font&gt;&lt;/span&gt;" style="text;html=1;strokeColor=none;fillColor=none;align=left;verticalAlign=middle;whiteSpace=wrap;rounded=0;fontSize=22;fontColor=#703800;fontStyle=1" vertex="1" parent="1">
                    <mxGeometry x="934.5" y="359" width="195" height="30" as="geometry"/>
                </mxCell>
                <mxCell id="94" value="芯片选型" style="text;html=1;strokeColor=none;fillColor=none;align=left;verticalAlign=middle;whiteSpace=wrap;rounded=0;fontSize=22;fontColor=#990000;fontStyle=1" vertex="1" parent="1">
                    <mxGeometry x="900" y="439" width="130" height="30" as="geometry"/>
                </mxCell>
                <mxCell id="95" value="厂商支持" style="shape=step;perimeter=stepPerimeter;whiteSpace=wrap;html=1;fixedSize=1;fontSize=18;fontColor=#F0F0F0;strokeColor=#001DBC;fillColor=#0050ef;size=15;" vertex="1" parent="1">
                    <mxGeometry x="1435" y="497" width="145" height="40" as="geometry"/>
                </mxCell>
                <mxCell id="96" value="软件生态" style="shape=step;perimeter=stepPerimeter;whiteSpace=wrap;html=1;fixedSize=1;fontSize=18;fontColor=#F0F0F0;strokeColor=#000000;fillColor=#999999;size=15;" vertex="1" parent="1">
                    <mxGeometry x="1301" y="497" width="145" height="40" as="geometry"/>
                </mxCell>
                <mxCell id="97" value="算理要求" style="shape=step;perimeter=stepPerimeter;whiteSpace=wrap;html=1;fixedSize=1;fontSize=18;fontColor=#F0F0F0;strokeColor=#001DBC;fillColor=#0050ef;size=15;" vertex="1" parent="1">
                    <mxGeometry x="1168" y="497" width="145" height="40" as="geometry"/>
                </mxCell>
                <mxCell id="98" value="车规标准" style="shape=step;perimeter=stepPerimeter;whiteSpace=wrap;html=1;fixedSize=1;fontSize=18;fontColor=#F0F0F0;strokeColor=#000000;fillColor=#999999;size=15;" vertex="1" parent="1">
                    <mxGeometry x="1035" y="497" width="145" height="40" as="geometry"/>
                </mxCell>
                <mxCell id="99" value="应用场景" style="shape=step;perimeter=stepPerimeter;whiteSpace=wrap;html=1;fixedSize=1;fontSize=18;fontColor=#F0F0F0;strokeColor=#001DBC;fillColor=#0050ef;size=15;" vertex="1" parent="1">
                    <mxGeometry x="902" y="497" width="145" height="40" as="geometry"/>
                </mxCell>
                <mxCell id="100" value="" style="edgeStyle=none;html=1;fontSize=18;fontColor=#703800;strokeColor=#999999;fillColor=#999999;shape=flexArrow;width=6;endSize=4.84;" edge="1" parent="1" source="101" target="99">
                    <mxGeometry relative="1" as="geometry"/>
                </mxCell>
                <mxCell id="101" value="" style="aspect=fixed;perimeter=ellipsePerimeter;html=1;align=center;shadow=0;dashed=0;spacingTop=3;image;image=img/lib/active_directory/internet_globe.svg;fontSize=18;fontColor=#703800;strokeColor=#000000;fillColor=#66B2FF;" vertex="1" parent="1">
                    <mxGeometry x="949.5" y="604.75" width="50" height="50" as="geometry"/>
                </mxCell>
                <mxCell id="102" value="" style="aspect=fixed;perimeter=ellipsePerimeter;html=1;align=center;shadow=0;dashed=0;spacingTop=3;image;image=img/lib/active_directory/databases.svg;fontSize=18;fontColor=#703800;strokeColor=#000000;fillColor=#66B2FF;" vertex="1" parent="1">
                    <mxGeometry x="1348.5" y="596.5" width="50" height="49" as="geometry"/>
                </mxCell>
                <mxCell id="103" value="" style="aspect=fixed;perimeter=ellipsePerimeter;html=1;align=center;shadow=0;dashed=0;spacingTop=3;image;image=img/lib/active_directory/internet_cloud.svg;fontSize=18;fontColor=#703800;strokeColor=#000000;fillColor=#66B2FF;" vertex="1" parent="1">
                    <mxGeometry x="1215.5" y="610.75" width="50" height="31.5" as="geometry"/>
                </mxCell>
                <mxCell id="104" value="" style="aspect=fixed;perimeter=ellipsePerimeter;html=1;align=center;shadow=0;dashed=0;spacingTop=3;image;image=img/lib/active_directory/router.svg;fontSize=18;fontColor=#703800;strokeColor=#000000;fillColor=#66B2FF;" vertex="1" parent="1">
                    <mxGeometry x="1082.5" y="610.75" width="50" height="38" as="geometry"/>
                </mxCell>
                <mxCell id="105" value="" style="aspect=fixed;perimeter=ellipsePerimeter;html=1;align=center;shadow=0;dashed=0;spacingTop=3;image;image=img/lib/active_directory/user_accounts.svg;fontSize=18;fontColor=#703800;strokeColor=#000000;fillColor=#66B2FF;" vertex="1" parent="1">
                    <mxGeometry x="1482.5" y="597" width="50" height="48.5" as="geometry"/>
                </mxCell>
                <mxCell id="106" value="" style="edgeStyle=none;html=1;fontSize=18;fontColor=#703800;strokeColor=#999999;fillColor=#999999;shape=flexArrow;width=6;endSize=4.84;entryX=0.5;entryY=1;entryDx=0;entryDy=0;exitX=0.5;exitY=0;exitDx=0;exitDy=0;" edge="1" parent="1" source="105" target="95">
                    <mxGeometry relative="1" as="geometry">
                        <mxPoint x="1480" y="610.75" as="sourcePoint"/>
                        <mxPoint x="1480" y="543" as="targetPoint"/>
                    </mxGeometry>
                </mxCell>
                <mxCell id="107" value="" style="edgeStyle=none;html=1;fontSize=18;fontColor=#703800;strokeColor=#999999;fillColor=#999999;shape=flexArrow;width=6;endSize=4.84;entryX=0.5;entryY=1;entryDx=0;entryDy=0;exitX=0.5;exitY=0;exitDx=0;exitDy=0;" edge="1" parent="1" source="102" target="96">
                    <mxGeometry relative="1" as="geometry">
                        <mxPoint x="1373" y="610.75" as="sourcePoint"/>
                        <mxPoint x="1373" y="543" as="targetPoint"/>
                    </mxGeometry>
                </mxCell>
                <mxCell id="108" value="" style="edgeStyle=none;html=1;fontSize=18;fontColor=#703800;strokeColor=#999999;fillColor=#999999;shape=flexArrow;width=6;endSize=4.84;entryX=0.5;entryY=1;entryDx=0;entryDy=0;" edge="1" parent="1" target="97">
                    <mxGeometry relative="1" as="geometry">
                        <mxPoint x="1241" y="611.9999999999998" as="sourcePoint"/>
                        <mxPoint x="1240" y="544.25" as="targetPoint"/>
                    </mxGeometry>
                </mxCell>
                <mxCell id="109" value="" style="edgeStyle=none;html=1;fontSize=18;fontColor=#703800;strokeColor=#999999;fillColor=#999999;shape=flexArrow;width=6;endSize=4.84;exitX=0.5;exitY=0;exitDx=0;exitDy=0;entryX=0.5;entryY=1;entryDx=0;entryDy=0;" edge="1" parent="1" source="104" target="98">
                    <mxGeometry relative="1" as="geometry">
                        <mxPoint x="1168" y="627" as="sourcePoint"/>
                        <mxPoint x="1168" y="559.25" as="targetPoint"/>
                    </mxGeometry>
                </mxCell>
                <mxCell id="110" value="确定应用场景，系统有哪些传感器" style="text;html=1;strokeColor=none;fillColor=none;align=left;verticalAlign=middle;whiteSpace=wrap;rounded=0;fontSize=14;fontColor=#000000;" vertex="1" parent="1">
                    <mxGeometry x="924.75" y="677" width="99.5" height="30" as="geometry"/>
                </mxCell>
                <mxCell id="111" value="根据需要的功能确定系统车规标准" style="text;html=1;strokeColor=none;fillColor=none;align=left;verticalAlign=middle;whiteSpace=wrap;rounded=0;fontSize=14;fontColor=#000000;" vertex="1" parent="1">
                    <mxGeometry x="1057.75" y="677" width="99.5" height="30" as="geometry"/>
                </mxCell>
                <mxCell id="112" value="与算法模型开发沟通，确定算理要求" style="text;html=1;strokeColor=none;fillColor=none;align=left;verticalAlign=middle;whiteSpace=wrap;rounded=0;fontSize=14;fontColor=#000000;" vertex="1" parent="1">
                    <mxGeometry x="1190.75" y="677" width="99.5" height="30" as="geometry"/>
                </mxCell>
                <mxCell id="113" value="各个层级的软件成熟度、软件生态" style="text;html=1;strokeColor=none;fillColor=none;align=left;verticalAlign=middle;whiteSpace=wrap;rounded=0;fontSize=14;fontColor=#000000;" vertex="1" parent="1">
                    <mxGeometry x="1323.75" y="677" width="99.5" height="30" as="geometry"/>
                </mxCell>
                <mxCell id="114" value="厂商联合开发，算法支持等" style="text;html=1;strokeColor=none;fillColor=none;align=left;verticalAlign=middle;whiteSpace=wrap;rounded=0;fontSize=14;fontColor=#000000;" vertex="1" parent="1">
                    <mxGeometry x="1457.75" y="667" width="99.5" height="30" as="geometry"/>
                </mxCell>
                <mxCell id="115" value="车载芯片团队岗位需求" style="text;html=1;strokeColor=none;fillColor=none;align=left;verticalAlign=middle;whiteSpace=wrap;rounded=0;fontSize=22;fontColor=#990000;fontStyle=1" vertex="1" parent="1">
                    <mxGeometry x="902" y="757" width="258" height="30" as="geometry"/>
                </mxCell>
                <mxCell id="116" value="系统软件" style="swimlane;fontSize=14;fontColor=#ffffff;strokeColor=#001DBC;fillColor=#0050ef;" vertex="1" parent="1">
                    <mxGeometry x="910" y="807" width="200" height="90" as="geometry"/>
                </mxCell>
                <mxCell id="117" value="&lt;font color=&quot;#000000&quot;&gt;嵌入式实时操作系统移植，&lt;br&gt;驱动开发&lt;/font&gt;" style="text;html=1;align=left;verticalAlign=middle;resizable=0;points=[];autosize=1;strokeColor=none;fillColor=none;fontSize=14;fontColor=#F0F0F0;" vertex="1" parent="116">
                    <mxGeometry x="10" y="30" width="180" height="40" as="geometry"/>
                </mxCell>
                <mxCell id="118" value="编译器" style="swimlane;fontSize=14;fontColor=#ffffff;strokeColor=#001DBC;fillColor=#0050ef;" vertex="1" parent="1">
                    <mxGeometry x="1140.5" y="807" width="200" height="90" as="geometry"/>
                </mxCell>
                <mxCell id="119" value="&lt;font color=&quot;#000000&quot;&gt;AI加速器的编译器，芯片&lt;br&gt;利用率提升&lt;/font&gt;" style="text;html=1;align=left;verticalAlign=middle;resizable=0;points=[];autosize=1;strokeColor=none;fillColor=none;fontSize=14;fontColor=#F0F0F0;" vertex="1" parent="118">
                    <mxGeometry x="10" y="30" width="170" height="40" as="geometry"/>
                </mxCell>
                <mxCell id="120" value="系统软件" style="swimlane;fontSize=14;fontColor=#ffffff;strokeColor=#001DBC;fillColor=#0050ef;" vertex="1" parent="1">
                    <mxGeometry x="910" y="922" width="200" height="90" as="geometry"/>
                </mxCell>
                <mxCell id="121" value="&lt;font color=&quot;#000000&quot;&gt;针对应用场景的算法开发，&lt;br&gt;完成算法需求的情况下充分&lt;br&gt;发挥芯片的优势&lt;/font&gt;" style="text;html=1;align=left;verticalAlign=middle;resizable=0;points=[];autosize=1;strokeColor=none;fillColor=none;fontSize=14;fontColor=#F0F0F0;" vertex="1" parent="120">
                    <mxGeometry x="10" y="27" width="180" height="60" as="geometry"/>
                </mxCell>
                <mxCell id="122" value="算法验证" style="swimlane;fontSize=14;fontColor=#ffffff;strokeColor=#001DBC;fillColor=#0050ef;" vertex="1" parent="1">
                    <mxGeometry x="1370" y="807" width="200" height="90" as="geometry"/>
                </mxCell>
                <mxCell id="123" value="&lt;font color=&quot;#000000&quot;&gt;基础算法验证，哪些算法&lt;br&gt;可以跑在芯片上，基础算法&lt;br&gt;示例开发&lt;/font&gt;" style="text;html=1;align=left;verticalAlign=middle;resizable=0;points=[];autosize=1;strokeColor=none;fillColor=none;fontSize=14;fontColor=#F0F0F0;" vertex="1" parent="122">
                    <mxGeometry x="10" y="26" width="180" height="60" as="geometry"/>
                </mxCell>
                <mxCell id="124" value="嵌入式应用开发" style="swimlane;fontSize=14;fontColor=#ffffff;strokeColor=#001DBC;fillColor=#0050ef;" vertex="1" parent="1">
                    <mxGeometry x="1140.5" y="922" width="200" height="90" as="geometry"/>
                </mxCell>
                <mxCell id="125" value="&lt;font color=&quot;#000000&quot;&gt;应用算法移植开发，在系统&lt;br&gt;中集成应用&lt;/font&gt;" style="text;html=1;align=left;verticalAlign=middle;resizable=0;points=[];autosize=1;strokeColor=none;fillColor=none;fontSize=14;fontColor=#F0F0F0;" vertex="1" parent="124">
                    <mxGeometry x="10" y="30" width="180" height="40" as="geometry"/>
                </mxCell>
            </root>
        </mxGraphModel>
    </diagram>
</mxfile>